<?xml version="1.0" standalone="no"?><!DOCTYPE svg PUBLIC "-//W3C//DTD SVG 1.1//EN" "http://www.w3.org/Graphics/SVG/1.1/DTD/svg11.dtd"><svg t="1682327093119" class="icon" viewBox="0 0 1024 1024" version="1.1" xmlns="http://www.w3.org/2000/svg" p-id="2640" xmlns:xlink="http://www.w3.org/1999/xlink" width="200" height="200"><path d="M921.6 256L704 38.4C678.4 12.8 646.4 0 614.4 0H192C121.6 0 64 57.6 64 128v768c0 70.4 57.6 128 128 128h640c70.4 0 128-57.6 128-128V345.6c0-32-12.8-64-38.4-89.6zM640 70.4c6.4 0 12.8 6.4 19.2 12.8l217.6 217.6c6.4 6.4 6.4 12.8 12.8 19.2H640V70.4zM896 896c0 38.4-25.6 64-64 64H192c-38.4 0-64-25.6-64-64V128c0-38.4 25.6-64 64-64h384v288c0 19.2 12.8 32 32 32H896v512z" fill="#777777" p-id="2641"></path><path d="M256 544c0 19.2 12.8 32 32 32h448c19.2 0 32-12.8 32-32s-12.8-32-32-32h-448c-19.2 0-32 12.8-32 32zM736 704h-448c-19.2 0-32 12.8-32 32s12.8 32 32 32h448c19.2 0 32-12.8 32-32s-12.8-32-32-32zM288 384h128c19.2 0 32-12.8 32-32S435.2 320 416 320h-128c-19.2 0-32 12.8-32 32s12.8 32 32 32z" fill="#777777" p-id="2642"></path></svg>