<?xml version="1.0" standalone="no"?><!DOCTYPE svg PUBLIC "-//W3C//DTD SVG 1.1//EN" "http://www.w3.org/Graphics/SVG/1.1/DTD/svg11.dtd"><svg t="1682344299588" class="icon" viewBox="0 0 1024 1024" version="1.1" xmlns="http://www.w3.org/2000/svg" p-id="2658" xmlns:xlink="http://www.w3.org/1999/xlink" width="200" height="200"><path d="M837.162667 291.306667c0 58.752-13.525333 112.938667-40.661333 162.602667-27.114667 49.749333-63.274667 92.629333-108.373333 128.704-45.184 36.202667-121.941333 89.536-121.941333 182.890667l0 47.466667-141.589333 0 0-67.754667c0-40.64 10.154667-80.128 30.464-118.549333 20.330667-38.336 74.901333-80.128 124.672-125.354667 36.096-31.530667 60.949333-64.32 74.538667-98.218667 13.546667-33.856 20.330667-66.56 20.330667-98.218667 0-58.645333-13.568-102.677333-40.682667-132.096-27.072-29.312-65.514667-44.010667-115.157333-44.010667-49.749333 0-91.434667 19.242667-125.333333 57.557333-33.856 38.442667-50.816 100.565333-50.816 186.304L186.837333 372.629333c4.437333-126.378667 38.293333-220.16 101.589333-281.130667C351.637333 30.528 428.373333 0 518.762667 0c99.306667 0 177.194667 27.114667 233.728 81.301333C808.917333 135.488 837.162667 205.589333 837.162667 291.306667z" fill="#231815" p-id="2659"></path><path d="M423.296 890.176l143.168 0 0 131.861333-143.168 0 0-131.861333Z" fill="#231815" p-id="2660"></path></svg>